# xmcd
#
# Track frame offsets: 
#        204
#        17766
#        36141
#        69129
#        107541
#        129181
#        152584
#        175301
#        192371
#
# Disc length: 2865 seconds
#
# Revision: 2
# Processed by: cddbd v1.5.2PL0 Copyright (c) Steve Scherf et al.
# Submitted via: ExactAudioCopyFreeDBPlugin 1.0
#
DISCID=660b2f09
DTITLE=Lee Oskar - The Best Of Lee Oskar
DYEAR=1992
DGENRE=Fusion
TTITLE0=The Promised Land
TTITLE1=Sunshine Keri
TTITLE2=San Francisco Bay
TTITLE3=Before The Rain
TTITLE4=More Than Words Can Say
TTITLE5=Song For My Son
TTITLE6=The Document (Theme from TV-program "The Document")
TTITLE7=Feeling Happy
TTITLE8=My Road
EXTD=YEAR: 1999
EXTT0=
EXTT1=
EXTT2=
EXTT3=
EXTT4=
EXTT5=
EXTT6=
EXTT7=
EXTT8=
PLAYORDER=
